<?xml version="1.0" encoding="UTF-8" standalone="no"?>
<!DOCTYPE svg PUBLIC "-//W3C//DTD SVG 1.1//EN" "http://www.w3.org/Graphics/SVG/1.1/DTD/svg11.dtd">
<svg width="100%" height="100%" viewBox="0 0 499 347" version="1.1" xmlns="http://www.w3.org/2000/svg" xmlns:xlink="http://www.w3.org/1999/xlink" xml:space="preserve" xmlns:serif="http://www.serif.com/" style="fill-rule:evenodd;clip-rule:evenodd;stroke-miterlimit:10;">
    <g id="Plan-de-travail1" serif:id="Plan de travail1" transform="matrix(1.00771,0,0,1,-168.859,-89.5398)">
        <rect x="167.567" y="89.54" width="494.282" height="346.887" style="fill:none;"/>
        <clipPath id="_clip1">
            <rect x="167.567" y="89.54" width="494.282" height="346.887"/>
        </clipPath>
        <g clip-path="url(#_clip1)">
            <g id="OBJECTS" transform="matrix(0.992347,0,0,1,5.62754,0.539763)">
                <g>
                    <clipPath id="_clip2">
                        <rect x="89.541" y="49.676" width="573.585" height="389.175" clip-rule="nonzero"/>
                    </clipPath>
                    <g clip-path="url(#_clip2)">
                        <g transform="matrix(1,0,0,1,0,-11.473)">
                            <rect x="89.541" y="61.149" width="573.585" height="389.175" style="fill:rgb(192,239,255);"/>
                        </g>
                        <g transform="matrix(1,0,0,1,535.573,322.098)">
                            <path d="M0,1.375C0.649,1.375 1.271,1.478 1.855,1.662C2.148,1.001 2.803,0.547 3.566,0.547C3.837,0.547 4.091,0.606 4.324,0.704C4.48,-0.79 5.741,-1.964 7.284,-1.964C8.491,-1.964 9.53,-1.244 9.995,-0.211C9.996,-0.208 9.997,-0.205 9.998,-0.203C10.256,-0.335 10.543,-0.417 10.852,-0.417C11.389,-0.417 11.869,-0.189 12.212,0.172C12.213,0.171 12.213,0.169 12.214,0.168C12.771,-0.471 13.589,-0.876 14.503,-0.876C16.024,-0.876 17.285,0.238 17.513,1.699C17.815,1.494 18.178,1.375 18.562,1.375C19.396,1.375 20.099,1.91 20.343,2.663C20.803,2.728 21.197,2.977 21.452,3.339L-4.497,3.339C-3.383,2.133 -1.78,1.375 0,1.375" style="fill:white;fill-rule:nonzero;"/>
                        </g>
                        <g transform="matrix(1,0,0,1,611.748,295.469)">
                            <path d="M0,1.376C0.649,1.376 1.271,1.479 1.856,1.662C2.148,1.002 2.803,0.548 3.566,0.548C3.837,0.548 4.091,0.607 4.324,0.704C4.48,-0.789 5.742,-1.964 7.284,-1.964C8.491,-1.964 9.53,-1.244 9.995,-0.21C9.996,-0.208 9.997,-0.205 9.999,-0.202C10.256,-0.335 10.543,-0.416 10.852,-0.416C11.389,-0.416 11.869,-0.188 12.212,0.172C12.213,0.171 12.213,0.17 12.214,0.169C12.771,-0.47 13.589,-0.876 14.503,-0.876C16.024,-0.876 17.285,0.239 17.513,1.7C17.815,1.494 18.178,1.376 18.562,1.376C19.396,1.376 20.1,1.911 20.343,2.663C20.803,2.729 21.197,2.978 21.452,3.34L-4.497,3.34C-3.383,2.133 -1.78,1.376 0,1.376" style="fill:white;fill-rule:nonzero;"/>
                        </g>
                        <g transform="matrix(1,0,0,1,574.711,298.72)">
                            <path d="M0,72.009L-0.722,67.364L2.168,67.364L1.858,59.675L4.696,59.675L4.387,58.281L5.936,58.281L7.02,68.345L10.013,68.397L9.496,50.953L10.734,50.953L10.734,49.819L11.664,49.819L11.664,50.644L13.935,50.799L13.573,44.451L14.605,44.451L15.019,51.109L16.205,50.953L17.393,70.616L20.437,70.719L20.437,34.336L30.088,40.167L30.088,61.791L36.849,61.172L37.364,53.173L47.583,47.96L51.195,53.173L51.195,64.681L55.427,64.371L55.427,23.292C55.427,23.292 61.207,24.737 61.62,32.685L65.336,32.685L65.336,51.263L75.657,51.263L75.657,16.17L77.274,16.17L76.861,11.594L77.756,11.594L77.618,8.085L78.203,8.085L78.513,0L78.822,8.051L79.511,8.051L79.244,11.577L80.327,11.603L79.992,16.247L81.179,16.274L81.179,72.009L0,72.009Z" style="fill:rgb(166,200,224);fill-rule:nonzero;"/>
                        </g>
                        <g transform="matrix(1,0,0,1,356.95,384.381)">
                            <path d="M0,-63.992C64.176,-55.166 94.314,11.573 166.173,-6.141C262.352,-29.852 306.176,-11.274 306.176,-11.274L306.176,6.244L-138.33,6.244C-138.33,6.244 -84.152,-75.565 0,-63.992" style="fill:rgb(1,213,173);fill-rule:nonzero;"/>
                        </g>
                        <g transform="matrix(1,0,0,1,593.326,390.643)">
                            <path d="M0,-23.815C0,-23.815 -17.685,-19.266 -21.297,-14.209C-24.909,-9.151 36.365,0 36.365,0L69.8,-0.018C69.8,-0.018 -15.94,-11.774 -13.727,-15.688C-11.664,-19.336 0,-23.815 0,-23.815" style="fill:rgb(103,114,114);fill-rule:nonzero;"/>
                        </g>
                        <g transform="matrix(1,0,0,1,663.071,366.828)">
                            <path d="M0,24.206C-16.768,21.797 -33.512,19.244 -50.206,16.371C-58.547,14.907 -66.891,13.426 -75.14,11.483C-77.197,10.98 -79.255,10.464 -81.258,9.753C-81.757,9.571 -82.251,9.372 -82.726,9.125C-82.96,8.995 -83.194,8.859 -83.393,8.659C-83.485,8.559 -83.58,8.427 -83.573,8.261C-83.559,8.087 -83.447,7.999 -83.377,7.887C-82.78,6.985 -81.927,6.318 -81.072,5.697C-79.343,4.466 -77.468,3.462 -75.564,2.537C-73.658,1.615 -71.716,0.768 -69.743,0C-71.71,0.784 -73.645,1.646 -75.542,2.583C-77.436,3.523 -79.301,4.542 -81.012,5.781C-81.855,6.403 -82.699,7.078 -83.269,7.956C-83.339,8.062 -83.443,8.171 -83.441,8.268C-83.446,8.371 -83.379,8.477 -83.294,8.566C-83.117,8.742 -82.888,8.876 -82.659,8.999C-82.193,9.237 -81.702,9.431 -81.205,9.606C-79.21,10.297 -77.15,10.798 -75.093,11.282C-66.839,13.155 -58.486,14.568 -50.138,15.964C-33.428,18.7 -16.665,21.116 0.112,23.388L0,24.206Z" style="fill:rgb(255,222,0);fill-rule:nonzero;"/>
                        </g>
                        <g transform="matrix(1,0,0,1,630.754,367.092)">
                            <path d="M0,23.961C-6.974,22.906 -13.927,21.759 -20.867,20.523C-27.806,19.279 -34.732,17.958 -41.608,16.392C-45.045,15.601 -48.472,14.759 -51.846,13.715C-53.528,13.185 -55.206,12.618 -56.805,11.84C-57.199,11.637 -57.594,11.428 -57.961,11.168C-58.326,10.914 -58.697,10.622 -58.908,10.178C-58.997,9.953 -59.024,9.672 -58.902,9.449C-58.807,9.202 -58.625,9.087 -58.489,8.901C-58.199,8.56 -57.911,8.216 -57.553,7.949C-56.212,6.778 -54.655,5.905 -53.071,5.135C-51.489,4.351 -49.853,3.687 -48.2,3.075C-44.892,1.858 -41.511,0.845 -38.091,0C-41.502,0.878 -44.872,1.924 -48.164,3.172C-49.809,3.799 -51.436,4.477 -53.002,5.274C-54.572,6.055 -56.111,6.941 -57.416,8.104C-57.767,8.37 -58.041,8.706 -58.318,9.039C-58.618,9.359 -58.891,9.711 -58.695,10.086C-58.523,10.444 -58.176,10.73 -57.821,10.966C-57.468,11.212 -57.079,11.413 -56.69,11.609C-55.11,12.358 -53.434,12.908 -51.755,13.419C-48.385,14.426 -44.956,15.232 -41.519,15.988C-34.639,17.485 -27.705,18.737 -20.762,19.913C-13.816,21.08 -6.854,22.159 0.117,23.144L0,23.961Z" style="fill:rgb(255,222,0);fill-rule:nonzero;"/>
                        </g>
                        <g transform="matrix(1,0,0,1,373.645,291.774)">
                            <path d="M0,32.438L-12.496,32.438L-12.496,13.376C-12.496,9.926 -12.496,0 -6.248,0C0,0 0,9.686 0,13.136L0,32.438Z" style="fill:rgb(12,142,118);fill-rule:nonzero;"/>
                        </g>
                        <g transform="matrix(0.0346902,0.999398,0.999398,-0.0346902,381.236,314.699)">
                            <path d="M-13.839,-13.367L12.912,-13.367C13.437,-13.367 13.857,-13.803 13.839,-14.328C13.821,-14.853 13.372,-15.258 12.848,-15.222L-13.839,-13.367Z" style="fill:rgb(184,127,109);fill-rule:nonzero;"/>
                        </g>
                        <g transform="matrix(1,0,0,1,370.611,326.459)">
                            <path d="M0,3.629C0,1.625 1.625,0 3.629,0C5.634,0 7.258,1.625 7.258,3.629L0,3.629Z" style="fill:rgb(28,160,134);fill-rule:nonzero;"/>
                        </g>
                        <g transform="matrix(1,0,0,1,358.759,327.456)">
                            <path d="M0,2.632C0,1.179 1.178,0 2.632,0C4.085,0 5.264,1.179 5.264,2.632L0,2.632Z" style="fill:rgb(28,160,134);fill-rule:nonzero;"/>
                        </g>
                        <g transform="matrix(1,0,0,1,362.955,324.862)">
                            <path d="M0,5.226C0,2.34 2.34,0 5.227,0C8.113,0 10.453,2.34 10.453,5.226L0,5.226Z" style="fill:rgb(28,160,134);fill-rule:nonzero;"/>
                        </g>
                        <g transform="matrix(1,0,0,1,281.593,358.592)">
                            <path d="M0,11.434L-9.959,11.78C-11.245,11.825 -12.5,11.274 -13.275,10.247C-13.833,9.508 -14.074,8.6 -13.131,7.725C-11.669,6.365 -8.898,8.386 -8.898,8.386C-8.898,8.386 -12.77,5.582 -11.423,3.336C-10.077,1.089 -6.722,3.103 -6.553,6.804C-6.553,6.804 -6.295,0.652 -2.649,0.13C0.997,-0.391 0.372,4.194 -1.504,6.628C-1.504,6.628 2.157,3.474 3.139,5.537C4.12,7.599 0.58,9.645 0.58,9.645C0.58,9.645 1.207,9.48 1.94,9.492C3.147,9.511 3.145,11.325 1.939,11.367L0,11.434Z" style="fill:rgb(28,160,134);fill-rule:nonzero;"/>
                        </g>
                        <g transform="matrix(1,0,0,1,275.959,365.299)">
                            <path d="M0,4.839C0.029,4.836 0.058,4.828 0.085,4.817C0.213,4.76 0.282,4.62 0.248,4.485C0.081,3.817 -0.046,3.086 -0.168,2.379C-0.293,1.663 -0.422,0.923 -0.593,0.235C-0.631,0.082 -0.786,-0.011 -0.939,0.027C-1.092,0.066 -1.186,0.22 -1.147,0.373C-0.981,1.041 -0.854,1.771 -0.732,2.477C-0.674,2.811 -0.615,3.151 -0.551,3.487C-1.097,2.95 -1.737,2.492 -2.363,2.043C-2.515,1.934 -2.666,1.826 -2.813,1.719C-2.939,1.625 -3.119,1.652 -3.212,1.78C-3.306,1.907 -3.278,2.087 -3.15,2.18C-3.001,2.288 -2.85,2.398 -2.696,2.508C-1.786,3.159 -0.846,3.833 -0.269,4.712C-0.208,4.803 -0.104,4.85 0,4.839" style="fill:rgb(12,142,118);fill-rule:nonzero;"/>
                        </g>
                        <g transform="matrix(1,0,0,1,275.959,365.643)">
                            <path d="M0,4.495C0.038,4.491 0.075,4.479 0.11,4.46C1.521,3.674 3.726,2.917 5.473,2.996C5.636,3.003 5.765,2.881 5.771,2.724C5.779,2.566 5.657,2.432 5.499,2.425C3.916,2.352 2.126,2.887 0.77,3.493C1.355,2.677 1.997,2.044 2.712,1.339C2.978,1.076 3.255,0.803 3.544,0.506C3.654,0.393 3.652,0.212 3.539,0.102C3.425,-0.009 3.244,-0.005 3.135,0.107C2.848,0.401 2.574,0.672 2.311,0.932C1.334,1.895 0.49,2.727 -0.278,4.068C-0.341,4.181 -0.323,4.32 -0.233,4.412C-0.17,4.474 -0.084,4.504 0,4.495" style="fill:rgb(12,142,118);fill-rule:nonzero;"/>
                        </g>
                        <g transform="matrix(-1,0,0,1,752.667,312.134)">
                            <rect x="89.541" y="78.491" width="573.585" height="30.884" style="fill:rgb(83,96,96);"/>
                        </g>
                        <g transform="matrix(-1,0,0,1,752.667,282.594)">
                            <rect x="89.541" y="108.031" width="573.585" height="1.344" style="fill:rgb(255,222,0);"/>
                        </g>
                        <g transform="matrix(-1,0,0,1,752.667,338.82)">
                            <rect x="89.541" y="78.491" width="573.585" height="4.198" style="fill:rgb(255,222,0);"/>
                        </g>
                        <g transform="matrix(-1,0,0,1,492.702,307.867)">
                            <rect x="215.868" y="94.527" width="60.966" height="3.079" style="fill:rgb(255,222,0);"/>
                        </g>
                        <g transform="matrix(-1,0,0,1,752.666,307.867)">
                            <rect x="345.85" y="94.527" width="60.966" height="3.079" style="fill:rgb(255,222,0);"/>
                        </g>
                        <g transform="matrix(-1,0,0,1,1012.63,307.867)">
                            <rect x="475.833" y="94.527" width="60.966" height="3.079" style="fill:rgb(255,222,0);"/>
                        </g>
                        <g transform="matrix(-1,0,0,1,1268.89,307.867)">
                            <rect x="605.814" y="94.527" width="57.258" height="3.079" style="fill:rgb(255,222,0);"/>
                        </g>
                        <g transform="matrix(-1,0,0,1,752.667,360.361)">
                            <rect x="89.541" y="61.148" width="573.585" height="17.343" style="fill:rgb(184,127,109);"/>
                        </g>
                        <g transform="matrix(1,0,0,1,263.43,412.224)">
                            <path d="M0,15.203L-13.241,15.664C-14.951,15.723 -16.619,14.991 -17.65,13.626C-18.393,12.643 -18.712,11.435 -17.459,10.271C-15.515,8.464 -11.83,11.151 -11.83,11.151C-11.83,11.151 -16.979,7.424 -15.188,4.436C-13.398,1.449 -8.938,4.127 -8.713,9.048C-8.713,9.048 -8.369,0.867 -3.522,0.174C1.325,-0.52 0.494,5.576 -2,8.814C-2,8.814 2.868,4.619 4.173,7.362C5.479,10.104 0.771,12.824 0.771,12.824C0.771,12.824 1.604,12.605 2.58,12.621C4.184,12.646 4.181,15.057 2.578,15.113L0,15.203Z" style="fill:rgb(1,198,152);fill-rule:nonzero;"/>
                        </g>
                        <g transform="matrix(1,0,0,1,255.939,421.141)">
                            <path d="M0,6.434C0.039,6.43 0.077,6.419 0.114,6.404C0.283,6.33 0.375,6.143 0.33,5.964C0.108,5.075 -0.061,4.103 -0.224,3.163C-0.389,2.211 -0.561,1.227 -0.788,0.314C-0.839,0.11 -1.044,-0.014 -1.249,0.037C-1.452,0.087 -1.576,0.293 -1.525,0.497C-1.305,1.384 -1.136,2.355 -0.973,3.293C-0.896,3.738 -0.817,4.189 -0.732,4.636C-1.458,3.923 -2.309,3.313 -3.141,2.717C-3.343,2.572 -3.544,2.428 -3.74,2.285C-3.908,2.161 -4.146,2.198 -4.271,2.368C-4.395,2.537 -4.358,2.775 -4.188,2.898C-3.991,3.043 -3.788,3.188 -3.584,3.334C-2.375,4.201 -1.125,5.097 -0.356,6.265C-0.276,6.385 -0.138,6.448 0,6.434" style="fill:rgb(12,142,118);fill-rule:nonzero;"/>
                        </g>
                        <g transform="matrix(1,0,0,1,255.939,421.599)">
                            <path d="M0,5.976C0.051,5.97 0.1,5.955 0.146,5.929C2.022,4.884 4.954,3.878 7.277,3.983C7.493,3.992 7.665,3.83 7.674,3.621C7.684,3.412 7.521,3.234 7.312,3.224C5.207,3.127 2.827,3.836 1.024,4.644C1.802,3.559 2.655,2.717 3.606,1.779C3.96,1.43 4.328,1.067 4.712,0.672C4.858,0.522 4.855,0.282 4.705,0.135C4.555,-0.012 4.313,-0.007 4.168,0.142C3.787,0.533 3.423,0.892 3.073,1.238C1.774,2.519 0.651,3.625 -0.369,5.409C-0.454,5.557 -0.429,5.744 -0.31,5.865C-0.227,5.949 -0.112,5.988 0,5.976" style="fill:rgb(12,142,118);fill-rule:nonzero;"/>
                        </g>
                        <g transform="matrix(1,0,0,1,521.85,419.998)">
                            <path d="M0,15.202L-13.242,15.663C-14.951,15.723 -16.619,14.99 -17.651,13.625C-18.393,12.642 -18.713,11.435 -17.46,10.27C-15.516,8.463 -11.831,11.151 -11.831,11.151C-11.831,11.151 -16.979,7.423 -15.188,4.436C-13.398,1.449 -8.938,4.127 -8.713,9.047C-8.713,9.047 -8.369,0.867 -3.522,0.173C1.325,-0.521 0.494,5.576 -2.001,8.813C-2.001,8.813 2.867,4.619 4.173,7.361C5.478,10.103 0.771,12.824 0.771,12.824C0.771,12.824 1.604,12.604 2.58,12.62C4.184,12.645 4.181,15.057 2.577,15.113L0,15.202Z" style="fill:rgb(1,198,152);fill-rule:nonzero;"/>
                        </g>
                        <g transform="matrix(1,0,0,1,514.359,428.916)">
                            <path d="M0,6.433C0.038,6.429 0.076,6.419 0.113,6.403C0.283,6.329 0.374,6.143 0.329,5.963C0.108,5.075 -0.061,4.102 -0.225,3.162C-0.39,2.211 -0.561,1.227 -0.788,0.313C-0.839,0.109 -1.045,-0.015 -1.249,0.036C-1.452,0.086 -1.576,0.292 -1.525,0.496C-1.305,1.383 -1.137,2.354 -0.974,3.292C-0.896,3.737 -0.817,4.188 -0.732,4.636C-1.458,3.922 -2.31,3.313 -3.142,2.716C-3.344,2.571 -3.544,2.428 -3.74,2.285C-3.908,2.161 -4.146,2.197 -4.271,2.367C-4.396,2.536 -4.358,2.774 -4.188,2.898C-3.991,3.042 -3.788,3.188 -3.584,3.333C-2.375,4.201 -1.125,5.096 -0.356,6.264C-0.277,6.385 -0.138,6.448 0,6.433" style="fill:rgb(12,142,118);fill-rule:nonzero;"/>
                        </g>
                        <g transform="matrix(1,0,0,1,514.359,429.374)">
                            <path d="M0,5.975C0.05,5.97 0.1,5.954 0.146,5.929C2.022,4.884 4.954,3.877 7.276,3.983C7.493,3.991 7.664,3.829 7.674,3.621C7.684,3.411 7.521,3.233 7.312,3.223C5.206,3.126 2.827,3.836 1.023,4.644C1.802,3.558 2.654,2.716 3.605,1.779C3.96,1.429 4.328,1.066 4.712,0.672C4.858,0.521 4.855,0.281 4.705,0.134C4.555,-0.012 4.313,-0.008 4.168,0.141C3.787,0.532 3.423,0.892 3.072,1.237C1.773,2.519 0.651,3.625 -0.369,5.409C-0.454,5.557 -0.43,5.743 -0.31,5.865C-0.227,5.949 -0.112,5.987 0,5.975" style="fill:rgb(12,142,118);fill-rule:nonzero;"/>
                        </g>
                        <g transform="matrix(0,-1,-1,0,364.084,421.471)">
                            <path d="M-6.193,-6.194C-7.029,-6.194 -7.708,-3.422 -7.708,-0.001C-7.708,3.419 -7.029,6.193 -6.193,6.193C-5.357,6.193 -4.679,3.419 -4.679,-0.001C-4.679,-3.422 -5.357,-6.194 -6.193,-6.194" style="fill:rgb(121,69,43);fill-rule:nonzero;"/>
                        </g>
                        <g transform="matrix(0,-1,-1,0,468.575,420.855)">
                            <path d="M-6.193,-6.193C-7.029,-6.193 -7.707,-3.421 -7.707,0C-7.707,3.42 -7.029,6.193 -6.193,6.193C-5.357,6.193 -4.679,3.42 -4.679,0C-4.679,-3.421 -5.357,-6.193 -6.193,-6.193" style="fill:rgb(121,69,43);fill-rule:nonzero;"/>
                        </g>
                        <g transform="matrix(0,-1,-1,0,490.499,430.213)">
                            <path d="M-3.096,-3.096C-3.515,-3.096 -3.854,-1.709 -3.854,0.001C-3.854,1.71 -3.515,3.096 -3.096,3.096C-2.678,3.096 -2.339,1.71 -2.339,0.001C-2.339,-1.709 -2.678,-3.096 -3.096,-3.096" style="fill:rgb(121,69,43);fill-rule:nonzero;"/>
                        </g>
                        <g transform="matrix(0,-1,-1,0,248.222,429.456)">
                            <path d="M-3.096,-3.096C-3.515,-3.096 -3.854,-1.71 -3.854,-0.001C-3.854,1.71 -3.515,3.096 -3.096,3.096C-2.678,3.096 -2.339,1.71 -2.339,-0.001C-2.339,-1.71 -2.678,-3.096 -3.096,-3.096" style="fill:rgb(121,69,43);fill-rule:nonzero;"/>
                        </g>
                        <g transform="matrix(0,-1,-1,0,412.433,428.676)">
                            <path d="M-3.672,-3.672C-4.168,-3.672 -4.569,-2.028 -4.569,0C-4.569,2.028 -4.168,3.672 -3.672,3.672C-3.177,3.672 -2.775,2.028 -2.775,0C-2.775,-2.028 -3.177,-3.672 -3.672,-3.672" style="fill:rgb(121,69,43);fill-rule:nonzero;"/>
                        </g>
                        <g transform="matrix(0,-1,-1,0,215.868,421.339)">
                            <path d="M-3.672,-3.672C-4.168,-3.672 -4.569,-2.028 -4.569,0C-4.569,2.028 -4.168,3.672 -3.672,3.672C-3.176,3.672 -2.775,2.028 -2.775,0C-2.775,-2.028 -3.176,-3.672 -3.672,-3.672" style="fill:rgb(121,69,43);fill-rule:nonzero;"/>
                        </g>
                        <g transform="matrix(0,-1,-1,0,542.677,424.889)">
                            <path d="M-3.672,-3.672C-4.168,-3.672 -4.569,-2.028 -4.569,0C-4.569,2.027 -4.168,3.672 -3.672,3.672C-3.176,3.672 -2.775,2.027 -2.775,0C-2.775,-2.028 -3.176,-3.672 -3.672,-3.672" style="fill:rgb(121,69,43);fill-rule:nonzero;"/>
                        </g>
                        <g transform="matrix(1,0,0,1,547.79,349.86)">
                            <path d="M0,11.97C3.001,18.999 4.353,25.967 3.3,31.117C1.343,40.692 -5.099,51.697 -6.924,51.697C-8.45,51.697 -9.609,50.45 -9.609,48.967C-9.609,48.844 -9.601,48.722 -9.583,48.599C-9.425,47.414 -9.363,46.195 -9.416,44.949C-9.837,34.268 -18.394,25.422 -29.056,24.668C-41.455,23.799 -51.784,33.593 -51.784,45.808L-51.784,46.001C-51.775,49.143 -54.329,51.697 -57.471,51.697L-172.71,51.697C-174.79,51.697 -176.387,49.907 -176.194,47.835C-176.08,46.598 -176.063,45.325 -176.168,44.053C-177.028,33.268 -186.172,24.773 -196.983,24.616C-208.19,24.457 -217.448,32.995 -218.413,43.921L-218.413,43.939C-218.554,45.65 -219.993,46.966 -221.704,46.966L-223.222,46.966C-225.206,46.966 -227.338,45.053 -227.338,43.816C-227.364,33.68 -227.391,24.536 -227.391,24.536C-227.391,21.64 -227.812,22.027 -228.233,20.254C-228.663,18.472 -228.391,11.417 -228.233,8.328C-228.084,5.239 -224.346,4.397 -223.249,4.186C-191.99,-1.755 -174.825,-2.483 -173.404,-2.94C-172.026,-3.387 -170.92,-4.484 -170.271,-5.134L-170.2,-5.204C-170.034,-5.371 -169.779,-5.66 -169.455,-6.064C-169.332,-6.205 -169.209,-6.353 -169.068,-6.529C-169.06,-6.547 -169.042,-6.573 -169.024,-6.591C-164.804,-11.83 -152.658,-28.52 -151.868,-29.722C-151.667,-30.039 -150.798,-30.881 -149.263,-31.89C-146.445,-33.733 -141.382,-36.111 -134.081,-36.699C-122.453,-37.621 -78.619,-39.727 -56.795,-37.726C-36.909,-35.901 -34.329,-33.399 -32.609,-31.373L-32.618,-31.373C-30.916,-29.643 -20.034,-15.313 -10.829,-5.107C-7.88,-1.843 -5.247,1.887 -3.063,5.766C-0.377,7.196 4.467,9.846 4.528,10.408C4.59,10.969 2.177,11.61 0,11.97" style="fill:rgb(255,98,65);fill-rule:nonzero;"/>
                        </g>
                        <g transform="matrix(1,0,0,1,414.843,348.849)">
                            <path d="M0,-28.403C-1.698,-28.403 -4.785,-28.557 -6.791,-25.701C-8.798,-22.845 -21.687,-4.4 -22.459,-3.01C-23.23,-1.622 -23.771,0.154 -20.529,0.154L39.053,0.154C41.291,0.154 42.448,-0.078 42.448,-1.853L42.448,-24.081C42.448,-25.547 41.6,-28.404 39.053,-28.404C36.506,-28.404 0,-28.403 0,-28.403" style="fill:rgb(130,218,249);fill-rule:nonzero;"/>
                        </g>
                        <g transform="matrix(1,0,0,1,464.866,322.734)">
                            <path d="M0,23.98C0,25.06 0.465,26.269 2.523,26.269L54.541,26.269C56.445,26.269 59.842,24.649 59.636,21.355C59.429,18.062 50.631,3.809 49.499,2.164C48.366,0.517 46.565,-2.289 42.501,-2.289L4.323,-2.289C2.832,-2.289 0,-1.644 0,1.34L0,23.98Z" style="fill:rgb(130,218,249);fill-rule:nonzero;"/>
                        </g>
                        <g transform="matrix(1,0,0,1,402.359,344.745)">
                            <path d="M0,-23.579L-19.271,2.449C-19.719,3.063 -20.57,3.194 -21.185,2.747C-21.685,2.379 -24.062,0.554 -24.844,-0.017C-24.817,-0.044 -24.791,-0.069 -24.773,-0.087C-24.607,-0.254 -24.353,-0.544 -24.027,-0.947C-23.914,-1.088 -23.782,-1.246 -23.642,-1.412C-23.633,-1.43 -23.615,-1.456 -23.598,-1.474C-19.377,-6.713 -7.231,-23.404 -6.441,-24.606C-6.24,-24.922 -5.371,-25.765 -3.835,-26.773C-2.624,-26.467 -0.816,-25.747 -0.299,-25.483C0.377,-25.15 0.447,-24.184 0,-23.579" style="fill:rgb(130,218,249);fill-rule:nonzero;"/>
                        </g>
                        <g transform="matrix(1,0,0,1,329.614,393.11)">
                            <path d="M0,0C0,2.079 -1.685,3.764 -3.763,3.764L-11.005,3.764C-13.084,3.764 -14.769,2.079 -14.769,0C-14.769,-2.078 -13.084,-3.764 -11.005,-3.764L-3.763,-3.764C-1.685,-3.764 0,-2.078 0,0" style="fill:rgb(64,64,64);fill-rule:nonzero;"/>
                        </g>
                        <g transform="matrix(1,0,0,1,554.604,397.794)">
                            <path d="M0,0.001C0,2.079 -1.685,3.764 -3.764,3.764L-12.887,3.764C-14.966,3.764 -16.65,2.079 -16.65,0.001C-16.65,-2.077 -14.966,-3.763 -12.887,-3.763L-3.764,-3.763C-1.685,-3.763 0,-2.077 0,0.001" style="fill:rgb(64,64,64);fill-rule:nonzero;"/>
                        </g>
                        <g transform="matrix(1,0,0,1,326.231,367.369)">
                            <path d="M0,-6.556L0,0C0,2.044 -1.395,3.703 -3.124,3.703L-6.494,3.703C-8.223,3.703 -9.618,2.044 -9.618,0L-9.618,-6.556C-9.618,-8.601 -8.223,-10.259 -6.494,-10.259L-3.124,-10.259C-1.395,-10.259 0,-8.601 0,-6.556" style="fill:rgb(255,222,0);fill-rule:nonzero;"/>
                        </g>
                        <g transform="matrix(1,0,0,1,326.231,371.072)">
                            <path d="M0,-5.669L0,-3.703C0,-1.659 -1.395,0 -3.124,0L-5.415,0L-5.415,-3.255C-5.415,-4.588 -4.333,-5.669 -3,-5.669L0,-5.669Z" style="fill:rgb(255,139,0);fill-rule:nonzero;"/>
                        </g>
                        <g transform="matrix(1,0,0,1,549.785,365.68)">
                            <path d="M0,6.06C0.388,7.463 -0.456,8.734 -1.885,8.897C-3.314,9.06 -4.787,8.054 -5.175,6.651L-7.014,0C-7.402,-1.403 -6.558,-2.673 -5.129,-2.836C-3.7,-3 -2.227,-1.994 -1.839,-0.59L0,6.06Z" style="fill:rgb(255,222,0);fill-rule:nonzero;"/>
                        </g>
                        <g transform="matrix(1,0,0,1,338.88,354.03)">
                            <path d="M0,0.001C8.105,-0.197 16.21,-0.282 24.315,-0.427L48.631,-0.671C64.841,-0.815 81.052,-0.803 97.262,-0.876C113.473,-0.808 129.683,-0.814 145.893,-0.675L170.208,-0.43C178.313,-0.284 186.419,-0.198 194.523,0.001C186.419,0.199 178.313,0.285 170.208,0.431L145.893,0.676C129.683,0.815 113.473,0.809 97.262,0.877C81.052,0.804 64.841,0.817 48.631,0.673L24.315,0.429C16.21,0.283 8.105,0.198 0,0.001" style="fill:rgb(238,238,238);fill-rule:nonzero;"/>
                        </g>
                        <g transform="matrix(1,0,0,1,407.009,393.397)">
                            <path d="M0,-73.807L-22.489,-42.22C-22.898,-41.646 -23.118,-40.957 -23.118,-40.252L-23.118,-9.682C-23.118,-7.396 -22.181,-5.209 -20.524,-3.632L-17.632,-0.878C-16.079,0.601 -14.017,1.426 -11.872,1.426L45.922,1.426C50.536,1.426 54.275,-2.314 54.275,-6.927L54.275,-71.838C54.275,-73.713 52.756,-75.233 50.882,-75.233L2.765,-75.233C1.667,-75.233 0.637,-74.702 0,-73.807Z" style="fill:none;fill-rule:nonzero;stroke:rgb(194,34,0);stroke-width:1.32px;"/>
                        </g>
                        <g transform="matrix(1,0,0,1,461.284,391.891)">
                            <path d="M0,-70.794L0,-3.775C0,-0.071 3.003,2.933 6.708,2.933L25.511,2.933C27.936,2.933 30.053,1.299 30.656,-1.05C32.392,-7.794 37.782,-20.81 53.618,-21.512C56.529,-21.641 60.783,-21.008 65.89,-19.242C67.676,-18.624 69.568,-19.836 69.716,-21.721L71.534,-44.986L54.618,-69.609C52.848,-72.187 49.921,-73.727 46.795,-73.727L2.933,-73.727C1.312,-73.727 0,-72.413 0,-70.794Z" style="fill:none;fill-rule:nonzero;stroke:rgb(194,34,0);stroke-width:1.32px;"/>
                        </g>
                        <g transform="matrix(1,0,0,1,451.499,358.385)">
                            <path d="M0,3.218L-8.19,3.218C-9.079,3.218 -9.8,2.497 -9.8,1.609C-9.8,0.72 -9.079,0 -8.19,0L0,0C0.889,0 1.608,0.72 1.608,1.609C1.608,2.497 0.889,3.218 0,3.218" style="fill:rgb(238,238,238);fill-rule:nonzero;"/>
                        </g>
                        <g transform="matrix(1,0,0,1,478.374,358.385)">
                            <path d="M0,3.218L-8.19,3.218C-9.079,3.218 -9.8,2.497 -9.8,1.609C-9.8,0.72 -9.079,0 -8.19,0L0,0C0.889,0 1.608,0.72 1.608,1.609C1.608,2.497 0.889,3.218 0,3.218" style="fill:rgb(238,238,238);fill-rule:nonzero;"/>
                        </g>
                        <g transform="matrix(-0.371211,0.928548,0.928548,0.371211,426.041,348.725)">
                            <path d="M-26.109,-10.876L4.645,-10.876L7.365,-17.68L-23.386,-17.688L-26.109,-10.876Z" style="fill:rgb(217,226,249);fill-rule:nonzero;"/>
                        </g>
                        <g transform="matrix(-0.370959,0.928649,0.928649,0.370959,445.652,354.749)">
                            <path d="M-35.005,-4.845L-4.255,-4.845L3.282,-23.711L-27.469,-23.709L-35.005,-4.845Z" style="fill:rgb(217,226,249);fill-rule:nonzero;"/>
                        </g>
                        <g transform="matrix(-0.370987,0.928638,0.928638,0.370987,489.649,350.617)">
                            <path d="M-28.905,-8.977L1.845,-8.977L6.08,-19.579L-24.67,-19.579L-28.905,-8.977Z" style="fill:rgb(217,226,249);fill-rule:nonzero;"/>
                        </g>
                        <g transform="matrix(1,0,0,1,516.912,340.496)">
                            <path d="M0,-11.548L-8.013,8.504L-22.193,8.504L-10.776,-20.052L-9.521,-20.052C-5.459,-20.052 -3.66,-17.243 -2.527,-15.603C-2.194,-15.12 -1.221,-13.584 0,-11.548" style="fill:rgb(217,226,249);fill-rule:nonzero;"/>
                        </g>
                        <g transform="matrix(0,-1,-1,0,517.197,374.488)">
                            <path d="M-21.181,-21.182C-32.88,-21.182 -42.362,-11.698 -42.362,0C-42.362,11.697 -32.88,21.181 -21.181,21.181C-9.483,21.181 0,11.697 0,0C0,-11.698 -9.483,-21.182 -21.181,-21.182" style="fill:rgb(64,64,64);fill-rule:nonzero;"/>
                        </g>
                        <g transform="matrix(0,-1,-1,0,517.197,383.488)">
                            <path d="M-12.181,-12.181C-18.909,-12.181 -24.362,-6.728 -24.362,0C-24.362,6.727 -18.909,12.181 -12.181,12.181C-5.453,12.181 0,6.727 0,0C0,-6.728 -5.453,-12.181 -12.181,-12.181" style="fill:rgb(238,238,238);fill-rule:nonzero;"/>
                        </g>
                        <g transform="matrix(0,-1,-1,0,517.197,391.74)">
                            <path d="M-3.928,-3.928C-6.098,-3.928 -7.858,-2.169 -7.858,0.001C-7.858,2.171 -6.098,3.928 -3.928,3.928C-1.758,3.928 0.001,2.171 0.001,0.001C0.001,-2.169 -1.758,-3.928 -3.928,-3.928" style="fill:rgb(64,64,64);fill-rule:nonzero;"/>
                        </g>
                        <g transform="matrix(0,-1,-1,0,350.491,374.466)">
                            <path d="M-21.202,-21.202C-32.912,-21.202 -42.404,-11.709 -42.404,0C-42.404,11.71 -32.912,21.202 -21.202,21.202C-9.492,21.202 0,11.71 0,0C0,-11.709 -9.492,-21.202 -21.202,-21.202" style="fill:rgb(64,64,64);fill-rule:nonzero;"/>
                        </g>
                        <g transform="matrix(0,-1,-1,0,350.491,383.487)">
                            <path d="M-12.181,-12.181C-18.909,-12.181 -24.362,-6.728 -24.362,0C-24.362,6.728 -18.909,12.181 -12.181,12.181C-5.453,12.181 0,6.728 0,0C0,-6.728 -5.453,-12.181 -12.181,-12.181" style="fill:rgb(238,238,238);fill-rule:nonzero;"/>
                        </g>
                        <g transform="matrix(0,-1,-1,0,350.491,391.74)">
                            <path d="M-3.928,-3.928C-6.098,-3.928 -7.858,-2.169 -7.858,0.001C-7.858,2.171 -6.098,3.928 -3.928,3.928C-1.758,3.928 0.001,2.171 0.001,0.001C0.001,-2.169 -1.758,-3.928 -3.928,-3.928" style="fill:rgb(64,64,64);fill-rule:nonzero;"/>
                        </g>
                        <g transform="matrix(1,0,0,1,421.325,288.654)">
                            <path d="M0,-28.005C0.799,-27.794 2.896,-28.391 5.271,-29.446C5.815,-29.689 6.065,-30.664 6.686,-30.909C10.851,-32.551 16.731,-34.169 24.462,-34.724C33.146,-35.347 41.314,-35.353 47.412,-34.924C52.152,-34.592 52.793,-32.734 53.074,-32.674C55.939,-32.067 57.65,-32.482 57.65,-32.482C57.65,-32.482 65.509,-37.152 77.014,-36.32C88.519,-35.488 91.911,-31.519 92.741,-28.091C93.57,-24.663 95.625,-7.27 87.148,6.105C87.148,6.105 83.803,9.147 78.873,6.25C73.943,3.352 55.164,1.167 54.621,0.831C54.079,0.495 53.655,-0.353 53.655,-0.353L49.903,-0.582C49.903,-0.582 49.188,0.5 47.392,0.866C45.595,1.232 32.243,1.586 25.679,1.358C19.114,1.131 8.954,1.68 7.666,0.086L3.255,0.033C3.255,0.033 2.599,0.858 0.627,1.258C-1.345,1.656 -9.845,2.652 -13.643,0.344C-17.44,-1.966 -21.293,-9.039 -21.636,-19.014C-21.816,-24.26 -16.59,-29.837 -10.964,-30.783C-5.892,-31.637 -0.394,-28.109 0,-28.005" style="fill:rgb(220,160,136);fill-rule:nonzero;"/>
                        </g>
                        <g transform="matrix(0.0808666,0.996725,0.996725,-0.0808666,440.224,274.426)">
                            <path d="M-16.271,-12.353L13.358,-12.353C13.358,-12.353 13.649,-14.521 12.949,-16.746L-15.261,-17.723C-15.261,-17.723 -16.559,-16.348 -16.271,-12.353" style="fill:rgb(184,127,109);fill-rule:nonzero;"/>
                        </g>
                        <g transform="matrix(-0.123392,0.992358,0.992358,0.123392,490.443,277.925)">
                            <path d="M-20.171,-14.064L12.206,-14.064C12.206,-14.064 13.09,-15.741 12.441,-17.816L-19.797,-18.629C-19.797,-18.629 -20.8,-16.441 -20.171,-14.064" style="fill:rgb(184,127,109);fill-rule:nonzero;"/>
                        </g>
                        <g transform="matrix(1,0,0,1,485.639,288.707)">
                            <path d="M0,19.465C3.62,27.73 19.256,29.13 23.478,21.048C23.869,20.312 24.156,19.491 24.334,18.588L24.334,18.577C24.34,18.551 24.35,18.493 24.365,18.415C24.376,18.373 24.387,18.326 24.392,18.284C24.392,18.284 26.564,20.636 28.482,18.284C30.399,15.934 29.292,-2.607 19.167,-6.092C8.803,-9.665 2.795,-3.396 0.705,2.351C-1.385,8.098 -2.69,13.321 0,19.465" style="fill:rgb(64,173,221);fill-rule:nonzero;"/>
                        </g>
                        <g transform="matrix(1,0,0,1,495.142,285.979)">
                            <path d="M0,25.003C0.747,25.223 1.624,25.363 2.56,25.363C4.127,25.363 5.846,24.972 7.318,23.901C8.725,22.882 10.427,20.84 10.553,16.896C10.678,12.825 9.56,9.367 7.48,7.408C6.29,6.279 4.853,5.732 3.447,5.857C2.063,5.977 0.726,6.922 -0.313,8.505C-1.787,10.762 -2.341,13.776 -1.651,15.84C-0.842,18.279 0.741,19.288 1.614,19.675C1.877,19.791 2.141,19.882 2.401,19.947C3.389,20.191 4.22,19.171 3.809,18.239C3.656,17.893 3.354,17.634 2.986,17.543C2.857,17.511 2.711,17.461 2.555,17.387C2.074,17.156 1.19,16.551 0.694,15.057C0.245,13.709 0.699,11.473 1.755,9.858C2.355,8.949 3.071,8.369 3.667,8.317C4.356,8.255 5.114,8.573 5.788,9.205C7.345,10.679 8.181,13.452 8.076,16.817C8.003,19.179 7.262,20.892 5.866,21.9C4.242,23.081 2.126,23.05 0.694,22.632C-2.152,21.796 -4.964,17.24 -4.603,11.781C-4.373,8.28 -2.179,4.822 0.731,3.37C2.309,2.586 4.806,2.059 7.747,3.991C14.617,8.505 12.423,20.73 12.396,20.85C12.396,20.85 11.812,23.546 13.975,23.775C14.366,23.039 14.653,22.219 14.831,21.315L14.831,21.305C14.837,21.278 14.847,21.221 14.862,21.143C15.14,19.497 16.947,7.074 9.105,1.923C6.044,-0.089 2.68,-0.36 -0.371,1.155C-4.028,2.978 -6.786,7.282 -7.074,11.619C-7.523,18.479 -3.751,23.906 0,25.003" style="fill:rgb(42,150,188);fill-rule:nonzero;"/>
                        </g>
                        <g transform="matrix(1,0,0,1,486.485,287.993)">
                            <path d="M0,25.888L-83.146,25.888C-84.66,25.888 -85.887,24.661 -85.887,23.148L-85.887,2.741C-85.887,1.227 -84.66,0 -83.146,0L0,0C1.513,0 2.74,1.227 2.74,2.741L2.74,23.148C2.74,24.661 1.513,25.888 0,25.888" style="fill:rgb(108,94,191);fill-rule:nonzero;"/>
                        </g>
                        <g transform="matrix(0,-1,-1,0,408.761,296.156)">
                            <path d="M0,8.163L5.422,8.163C6.937,8.163 8.163,6.936 8.163,5.423L8.163,0C3.654,0 0,3.655 0,8.163" style="fill:rgb(255,202,42);fill-rule:nonzero;"/>
                        </g>
                        <g transform="matrix(0,-1,-1,0,489.225,287.993)">
                            <path d="M-8.163,0L-2.741,0C-1.227,0 -0.001,1.228 -0.001,2.74L-0.001,8.163C-4.509,8.163 -8.163,4.509 -8.163,0" style="fill:rgb(255,202,42);fill-rule:nonzero;"/>
                        </g>
                        <g transform="matrix(0,1,1,0,408.762,305.718)">
                            <path d="M0,-8.163L5.423,-8.163C6.937,-8.163 8.163,-6.936 8.163,-5.423L8.163,0C3.655,0 0,-3.655 0,-8.163" style="fill:rgb(255,202,42);fill-rule:nonzero;"/>
                        </g>
                        <g transform="matrix(0,1,1,0,489.226,313.881)">
                            <path d="M-8.163,0L-2.74,0C-1.226,0 0,-1.228 0,-2.74L0,-8.163C-4.508,-8.163 -8.163,-4.509 -8.163,0" style="fill:rgb(255,202,42);fill-rule:nonzero;"/>
                        </g>
                        <g transform="matrix(1,0,0,1,400.599,300.937)">
                            <path d="M0,0L88.627,0" style="fill:none;fill-rule:nonzero;stroke:rgb(74,65,163);stroke-width:1.05px;"/>
                        </g>
                        <g transform="matrix(-1,0,0,1,851.69,101.874)">
                            <rect x="423.746" y="186.119" width="4.198" height="25.888" style="fill:rgb(255,202,42);"/>
                        </g>
                        <g transform="matrix(-1,0,0,1,927.956,101.874)">
                            <rect x="461.879" y="186.119" width="4.198" height="25.888" style="fill:rgb(255,202,42);"/>
                        </g>
                        <g transform="matrix(1,0,0,1,427.012,298.357)">
                            <path d="M0,5.16L-2.755,5.16C-4.18,5.16 -5.335,4.005 -5.335,2.58C-5.335,1.155 -4.18,0 -2.755,0L0,0C1.425,0 2.58,1.155 2.58,2.58C2.58,4.005 1.425,5.16 0,5.16" style="fill:rgb(74,65,163);fill-rule:nonzero;"/>
                        </g>
                        <g transform="matrix(1,0,0,1,465.356,298.357)">
                            <path d="M0,5.16L-2.756,5.16C-4.181,5.16 -5.336,4.005 -5.336,2.58C-5.336,1.155 -4.181,0 -2.756,0L0,0C1.425,0 2.579,1.155 2.579,2.58C2.579,4.005 1.425,5.16 0,5.16" style="fill:rgb(74,65,163);fill-rule:nonzero;"/>
                        </g>
                        <g transform="matrix(1,0,0,1,452.199,305.135)">
                            <path d="M0,4.665L-14.574,4.665C-15.646,4.665 -16.515,3.796 -16.515,2.725L-16.515,1.94C-16.515,0.869 -15.646,0 -14.574,0L0,0C1.071,0 1.939,0.869 1.939,1.94L1.939,2.725C1.939,3.796 1.071,4.665 0,4.665" style="fill:rgb(74,65,163);fill-rule:nonzero;"/>
                        </g>
                        <g transform="matrix(1,0,0,1,455.961,307.468)">
                            <path d="M0,-6.531L0,-2.085C0,-0.933 -0.933,0 -2.084,0L-3.629,0" style="fill:none;fill-rule:nonzero;stroke:rgb(74,65,163);stroke-width:2.1px;"/>
                        </g>
                        <g transform="matrix(1,0,0,1,433.87,307.468)">
                            <path d="M0,-6.531L0,-2.085C0,-0.933 0.934,0 2.084,0L3.63,0" style="fill:none;fill-rule:nonzero;stroke:rgb(74,65,163);stroke-width:2.1px;"/>
                        </g>
                        <g transform="matrix(1,0,0,1,610.544,213.539)">
                            <path d="M0,18.694C25.035,13.606 57.292,-5.52 72.756,-15.644L77.368,-18.896C79.998,-20.751 83.658,-19.153 84.086,-15.963L84.9,-9.875C82.95,-6.607 73.28,9.199 69.124,8.435C64.491,7.583 68.342,-0.249 68.342,-0.249C68.342,-0.249 57.375,19.461 51.009,21.116C44.643,22.771 45.572,13.236 45.572,13.236C45.572,13.236 41.241,21.553 39.126,23.743C37.111,25.981 34.743,27.708 32.197,27.79C24.749,28.028 28.402,21.531 28.402,21.531C28.402,21.531 6.063,37.158 2.326,35.043C-1.411,32.927 4.779,28.289 4.779,28.289C-17.587,39.445 -33.86,25.576 0,18.694" style="fill:rgb(1,198,152);fill-rule:nonzero;"/>
                        </g>
                        <g transform="matrix(1,0,0,1,622.361,296.729)">
                            <path d="M0,18.694C25.035,13.606 57.292,-5.519 72.757,-15.644L77.368,-18.896C79.998,-20.751 83.658,-19.153 84.086,-15.962L84.9,-9.874C82.95,-6.607 73.28,9.2 69.124,8.435C64.491,7.584 68.343,-0.248 68.343,-0.248C68.343,-0.248 57.376,19.462 51.009,21.117C44.643,22.771 45.573,13.237 45.573,13.237C45.573,13.237 41.242,21.554 39.126,23.744C37.111,25.981 34.743,27.709 32.197,27.791C24.749,28.029 28.402,21.532 28.402,21.532C28.402,21.532 6.063,37.159 2.326,35.044C-1.411,32.927 4.779,28.29 4.779,28.29C-17.587,39.445 -33.86,25.577 0,18.694" style="fill:rgb(1,198,152);fill-rule:nonzero;"/>
                        </g>
                        <g transform="matrix(-1,0,0,1,1268.61,-280.754)">
                            <rect x="629.608" y="360.651" width="9.397" height="59.452" style="fill:rgb(193,152,116);"/>
                        </g>
                        <g transform="matrix(1,0,0,1,627.516,432.027)">
                            <path d="M0,-271.739L-1.44,-172.779C-1.44,-172.779 -32.66,-179.716 -50.004,-182.62C-67.348,-185.524 -79.287,-194.478 -84.208,-203.675C-84.208,-203.675 -37.581,-209.402 -40.646,-240.379C-40.646,-240.379 -40.754,-208.326 -86.305,-208.757C-86.305,-208.757 -89.478,-211.984 -87.757,-233.495C-86.036,-255.007 -93.673,-230.698 -92.92,-219.835C-92.167,-208.972 -89.102,-203.11 -84.691,-196.71C-84.691,-196.71 -105.612,-192.946 -117.622,-204.152C-132.146,-217.702 -121.208,-238.12 -121.208,-238.12C-121.208,-238.12 -126.479,-233.173 -127.554,-224.03C-128.63,-214.887 -125.94,-188.643 -83.132,-195.096C-83.132,-195.096 -72.376,-184.448 -59.469,-180.791C-46.562,-177.134 -25.695,-172.402 -10.1,-161.108C5.497,-149.815 -0.312,-87.752 -0.312,-87.752L-4.506,6.825L24.084,6.825L12.37,-278.564L0,-271.739Z" style="fill:rgb(184,127,109);fill-rule:nonzero;"/>
                        </g>
                        <g transform="matrix(1,0,0,1,500.516,169.191)">
                            <path d="M0,40.701C-9.509,39.872 -19.454,38.899 -27.443,33.676C-31.263,31.179 -34.75,26.74 -33.315,22.407C-32.235,19.144 -28.786,17.329 -25.519,16.264C-22.251,15.198 -18.696,14.458 -16.182,12.116C-14.018,10.1 -12.96,7.196 -11.977,4.406C-11.01,1.663 -10.042,-1.08 -9.075,-3.823C-7.51,-8.263 -4.928,-13.498 -0.224,-13.685C2.354,-13.788 4.716,-12.207 6.489,-10.332C8.263,-8.458 9.654,-6.238 11.528,-4.464C15.48,-0.72 21.531,0.642 26.707,-1.045C30.773,-2.369 34.078,-5.323 37.856,-7.326C42.354,-9.71 47.57,-10.718 52.633,-10.182C54.909,-9.94 57.433,-9.186 58.469,-7.144C59.171,-5.757 59.008,-4.112 58.886,-2.562C58.358,4.14 59.145,11.431 63.553,16.508C69.063,22.851 78.904,23.873 86.837,21.103C89.378,20.217 91.987,18.977 94.637,19.448C96.851,19.841 98.712,21.407 99.991,23.256C104.514,29.789 101.903,39.642 95.453,44.282C89.004,48.922 79.93,48.787 72.771,45.338C70.569,44.276 68.487,42.927 66.151,42.203C60.316,40.396 54.036,42.785 48.679,45.722C43.322,48.659 38.083,52.258 32.032,53.103C22.105,54.489 12.9,48.219 4.84,42.262L0,40.701Z" style="fill:rgb(1,198,152);fill-rule:nonzero;"/>
                        </g>
                        <g transform="matrix(1,0,0,1,565.281,175.501)">
                            <path d="M0,-45.019C-2.62,-42.44 -5.26,-39.769 -6.883,-36.469C-8.506,-33.17 -8.967,-29.081 -7.177,-25.869C-4.569,-21.19 1.56,-19.989 6.912,-19.785C11.953,-19.592 17.024,-19.833 22.025,-19.172C27.026,-18.511 32.071,-16.848 35.741,-13.386C40.55,-8.851 42.789,-1.5 48.792,1.268C53.29,3.342 58.58,2.153 63.254,0.513C67.928,-1.128 72.665,-3.222 77.605,-2.856C87.946,-2.091 95.622,9.102 105.987,8.788C109.9,8.67 113.586,6.851 116.746,4.539C123.129,-0.134 128.025,-7.588 127.547,-15.484C127.444,-17.175 127.087,-18.883 126.22,-20.338C125.349,-21.8 124.018,-22.921 122.687,-23.981C111.316,-33.028 98.195,-39.566 85.184,-46.035C79.837,-48.693 74.393,-51.384 68.506,-52.391C58.385,-54.121 48.181,-50.72 37.977,-49.581C31.815,-48.894 25.593,-49.034 19.402,-49.362C13.619,-49.668 0,-45.019 0,-45.019" style="fill:rgb(1,198,152);fill-rule:nonzero;"/>
                        </g>
                        <g transform="matrix(-0.950619,0.310359,0.310359,0.950619,624.574,385.135)">
                            <path d="M-22.922,10.634L2.971,10.634L-5.153,-10.971L-26.547,-2.243L-22.922,10.634Z" style="fill:rgb(220,160,136);fill-rule:nonzero;"/>
                        </g>
                        <g transform="matrix(-0.992472,0.122473,0.122473,0.992472,626.124,356.462)">
                            <path d="M-21.637,8.043L0.662,8.043L-0.407,1.671L-22.406,-1.378L-21.637,8.043Z" style="fill:rgb(220,160,136);fill-rule:nonzero;"/>
                        </g>
                        <g transform="matrix(1,0,0,1,648.084,344.418)">
                            <path d="M0,5.284L-21.03,6.532L-20.736,-0.142C-20.736,-0.142 -20.697,-0.531 -20.64,-1.248L-0.121,2.328L0,5.284Z" style="fill:rgb(220,160,136);fill-rule:nonzero;"/>
                        </g>
                        <g transform="matrix(-0.0828616,-0.996561,-0.996561,0.0828616,637.673,308.174)">
                            <path d="M-10.821,-8.251C-11.752,-3.538 -13.027,5.069 -13.791,10.474C-12.816,10.38 -11.828,10.292 -10.821,10.202L-4.602,-8.511L-10.821,-8.251Z" style="fill:rgb(220,160,136);fill-rule:nonzero;"/>
                        </g>
                        <g transform="matrix(-0.987162,0.159721,0.159721,0.987162,622.999,285.592)">
                            <path d="M-20.858,14.479L-2.27,14.479C-2.704,7.549 -2.63,0.873 -1.638,-4.607L-21.817,6.512L-20.858,14.479Z" style="fill:rgb(220,160,136);fill-rule:nonzero;"/>
                        </g>
                        <g transform="matrix(-0.534127,0.845404,0.845404,0.534127,606.132,267.372)">
                            <path d="M-13.022,0.113L-2.934,0.113C-2.697,-2.718 -2.33,-5.537 -1.863,-8.314L-10.552,-6.538C-11.431,-4.203 -12.256,-1.962 -13.022,0.113" style="fill:rgb(220,160,136);fill-rule:nonzero;"/>
                        </g>
                        <g transform="matrix(1,0,0,1,595.024,256.641)">
                            <path d="M0,-3.98L-4.408,1.145C-7.224,0.186 -10,-0.671 -12.681,-1.453L-5.81,-5.125L-5.803,-5.125C-3.902,-4.753 -1.951,-4.37 0,-3.98" style="fill:rgb(220,160,136);fill-rule:nonzero;"/>
                        </g>
                        <g transform="matrix(1,0,0,1,572.759,249.974)">
                            <path d="M0,-1.586L-1.894,2.003C-2.815,1.754 -3.711,1.504 -4.568,1.261C-5.228,1.075 -5.873,0.871 -6.52,0.647L-6.52,-3.589C-4.459,-2.821 -2.284,-2.143 0,-1.586" style="fill:rgb(220,160,136);fill-rule:nonzero;"/>
                        </g>
                        <g transform="matrix(1,0,0,1,549.463,237.479)">
                            <path d="M0,-1.337L-3.742,0.557C-4.517,-0.134 -4.933,-0.55 -4.933,-0.55C-5.093,-0.525 -5.252,-0.505 -5.412,-0.48L-0.562,-1.894C-0.384,-1.708 -0.191,-1.516 0,-1.337" style="fill:rgb(220,160,136);fill-rule:nonzero;"/>
                        </g>
                        <g transform="matrix(-0.988179,0.153307,0.153307,0.988179,626.211,240.216)">
                            <path d="M-16.868,5.357L0.62,5.357L0.398,4.05L-17.63,-1.343L-16.868,5.357Z" style="fill:rgb(220,160,136);fill-rule:nonzero;"/>
                        </g>
                        <g transform="matrix(-0.994605,-0.103734,-0.103734,0.994605,627.496,214.161)">
                            <path d="M-17.238,14.171L-0.648,14.171L0.54,0.876L-16.51,9.165L-17.238,14.171Z" style="fill:rgb(220,160,136);fill-rule:nonzero;"/>
                        </g>
                        <g transform="matrix(0.536779,-0.843723,-0.843723,-0.536779,644.927,211.465)">
                            <path d="M-9.482,-3.534C-9.807,0.9 -10.438,10.341 -10.717,14.547L-9.482,15.31L1.803,4.32L-9.482,-3.534Z" style="fill:rgb(220,160,136);fill-rule:nonzero;"/>
                        </g>
                        <g transform="matrix(-0.963607,0.267324,0.267324,0.963607,627.134,185.757)">
                            <path d="M-13.551,4.469L1.143,4.469L-0.022,0.483L-15.042,-1.917L-13.551,4.469Z" style="fill:rgb(220,160,136);fill-rule:nonzero;"/>
                        </g>
                        <g transform="matrix(-0.459907,-0.887967,-0.887967,0.459907,574.513,398.834)">
                            <path d="M-1.682,-4.206C-3.735,-4.206 -6.298,-1.819 -6.298,-1.819C-6.298,-1.819 -3.736,0.568 -1.682,0.567C0.372,0.568 1.139,-0.501 1.139,-1.819C1.14,-3.138 0.371,-4.206 -1.682,-4.206" style="fill:rgb(12,142,118);fill-rule:nonzero;"/>
                        </g>
                        <g transform="matrix(-0.84534,0.534229,0.534229,0.84534,578.474,408.267)">
                            <path d="M2.026,-4.621C-0.028,-4.621 -2.59,-2.233 -2.59,-2.233C-2.59,-2.233 -0.027,0.153 2.026,0.153C4.081,0.152 4.848,-0.916 4.847,-2.235C4.847,-3.552 4.08,-4.621 2.026,-4.621" style="fill:rgb(12,142,118);fill-rule:nonzero;"/>
                        </g>
                        <g transform="matrix(-0.845434,0.53408,0.53408,0.845434,584.906,403.823)">
                            <path d="M0.523,-4.185C2.576,-4.185 5.14,-1.799 5.14,-1.799C5.14,-1.799 2.577,0.587 0.523,0.587C-1.532,0.588 -2.298,-0.481 -2.298,-1.799C-2.299,-3.117 -1.531,-4.186 0.523,-4.185" style="fill:rgb(12,142,118);fill-rule:nonzero;"/>
                        </g>
                        <g transform="matrix(-0.802807,0.596239,0.596239,0.802807,582.644,414.814)">
                            <path d="M1.994,-4.492C-0.059,-4.492 -2.622,-2.105 -2.622,-2.105C-2.622,-2.105 -0.06,0.281 1.994,0.282C4.049,0.282 4.816,-0.788 4.816,-2.105C4.815,-3.424 4.049,-4.491 1.994,-4.492" style="fill:rgb(12,142,118);fill-rule:nonzero;"/>
                        </g>
                        <g transform="matrix(-0.802707,0.596374,0.596374,0.802707,589.046,409.728)">
                            <path d="M0.851,-4.114C2.905,-4.113 5.468,-1.728 5.468,-1.728C5.468,-1.728 2.906,0.66 0.851,0.66C-1.202,0.66 -1.97,-0.408 -1.97,-1.727C-1.97,-3.044 -1.203,-4.113 0.851,-4.114" style="fill:rgb(12,142,118);fill-rule:nonzero;"/>
                        </g>
                        <g transform="matrix(-0.763235,0.646121,0.646121,0.763235,587.147,420.051)">
                            <path d="M1.907,-4.342C-0.146,-4.342 -2.71,-1.956 -2.71,-1.956C-2.71,-1.956 -0.147,0.43 1.907,0.431C3.96,0.432 4.728,-0.638 4.728,-1.955C4.728,-3.274 3.96,-4.341 1.907,-4.342" style="fill:rgb(12,142,118);fill-rule:nonzero;"/>
                        </g>
                        <g transform="matrix(-0.763219,0.646139,0.646139,0.763219,593.599,414.386)">
                            <path d="M1.178,-4.076C3.231,-4.075 5.794,-1.688 5.794,-1.688C5.794,-1.688 3.232,0.699 1.178,0.699C-0.877,0.698 -1.643,-0.37 -1.643,-1.689C-1.644,-3.006 -0.876,-4.076 1.178,-4.076" style="fill:rgb(12,142,118);fill-rule:nonzero;"/>
                        </g>
                        <g transform="matrix(-0.69645,0.717605,0.717605,0.69645,592.358,425.135)">
                            <path d="M1.838,-3.927C-0.216,-3.926 -2.779,-1.539 -2.779,-1.539C-2.779,-1.539 -0.216,0.847 1.838,0.848C3.892,0.847 4.659,-0.223 4.659,-1.54C4.659,-2.858 3.892,-3.926 1.838,-3.927" style="fill:rgb(12,142,118);fill-rule:nonzero;"/>
                        </g>
                        <g transform="matrix(-0.696555,0.717504,0.717504,0.696555,598.929,418.882)">
                            <path d="M1.587,-4.172C3.642,-4.172 6.204,-1.785 6.204,-1.785C6.204,-1.785 3.642,0.601 1.587,0.601C-0.466,0.6 -1.234,-0.468 -1.234,-1.786C-1.234,-3.104 -0.467,-4.172 1.587,-4.172" style="fill:rgb(12,142,118);fill-rule:nonzero;"/>
                        </g>
                        <g transform="matrix(-0.612068,0.790805,0.790805,0.612068,598.904,429.644)">
                            <path d="M2.112,-3.391C0.057,-3.391 -2.505,-1.004 -2.505,-1.004C-2.505,-1.004 0.057,1.382 2.112,1.381C4.165,1.382 4.932,0.314 4.933,-1.005C4.933,-2.323 4.165,-3.391 2.112,-3.391" style="fill:rgb(12,142,118);fill-rule:nonzero;"/>
                        </g>
                        <g transform="matrix(-0.612199,0.790704,0.790704,0.612199,605.14,423.26)">
                            <path d="M1.662,-4.303C3.717,-4.303 6.279,-1.915 6.279,-1.915C6.279,-1.915 3.715,0.471 1.662,0.47C-0.391,0.469 -1.159,-0.599 -1.16,-1.918C-1.158,-3.236 -0.391,-4.304 1.662,-4.303" style="fill:rgb(12,142,118);fill-rule:nonzero;"/>
                        </g>
                        <g transform="matrix(-0.561932,0.827184,0.827184,0.561932,605.107,433.829)">
                            <path d="M2.283,-3.145C0.23,-3.146 -2.334,-0.761 -2.334,-0.761C-2.334,-0.761 0.228,1.628 2.283,1.628C4.337,1.628 5.104,0.559 5.105,-0.758C5.104,-2.076 4.337,-3.145 2.283,-3.145" style="fill:rgb(12,142,118);fill-rule:nonzero;"/>
                        </g>
                        <g transform="matrix(-0.561834,0.82725,0.82725,0.561834,611.05,427.35)">
                            <path d="M1.667,-4.309C3.721,-4.309 6.282,-1.922 6.282,-1.922C6.282,-1.922 3.721,0.465 1.667,0.465C-0.388,0.464 -1.155,-0.604 -1.155,-1.922C-1.154,-3.24 -0.387,-4.309 1.667,-4.309" style="fill:rgb(12,142,118);fill-rule:nonzero;"/>
                        </g>
                        <g transform="matrix(1,0,0,1,617.076,403.265)">
                            <path d="M0,34.898C-0.12,35.025 -0.313,35.065 -0.479,34.981C-0.779,34.829 -30.688,19.477 -38.515,0.446C-38.6,0.24 -38.503,0.002 -38.294,-0.082C-38.087,-0.167 -37.851,-0.069 -37.766,0.138C-30.052,18.894 -0.41,34.107 -0.111,34.258C0.088,34.36 0.168,34.604 0.066,34.803C0.049,34.838 0.026,34.87 0,34.898" style="fill:rgb(1,198,152);fill-rule:nonzero;"/>
                        </g>
                        <g transform="matrix(0.586339,0.810066,0.810066,-0.586339,596.487,382.388)">
                            <path d="M1.659,-1.128C3.713,-1.128 6.276,1.259 6.276,1.259C6.276,1.259 3.713,3.646 1.659,3.646C-0.394,3.646 -1.161,2.578 -1.163,1.259C-1.162,-0.058 -0.395,-1.127 1.659,-1.128" style="fill:rgb(12,142,118);fill-rule:nonzero;"/>
                        </g>
                        <g transform="matrix(-0.857234,0.514927,0.514927,0.857234,607.506,386.728)">
                            <path d="M0.43,-4.21C2.484,-4.21 5.047,-1.824 5.047,-1.824C5.047,-1.824 2.484,0.563 0.43,0.563C-1.625,0.563 -2.391,-0.506 -2.391,-1.824C-2.392,-3.142 -1.625,-4.21 0.43,-4.21" style="fill:rgb(12,142,118);fill-rule:nonzero;"/>
                        </g>
                        <g transform="matrix(-0.857234,0.514927,0.514927,0.857234,601.177,391.178)">
                            <path d="M2.029,-4.653C-0.026,-4.654 -2.589,-2.267 -2.589,-2.267C-2.589,-2.267 -0.026,0.12 2.029,0.12C4.082,0.12 4.849,-0.949 4.848,-2.267C4.849,-3.585 4.082,-4.653 2.029,-4.653" style="fill:rgb(12,142,118);fill-rule:nonzero;"/>
                        </g>
                        <g transform="matrix(-0.893504,0.449056,0.449056,0.893504,611.379,393.886)">
                            <path d="M0.114,-4.292C2.168,-4.291 4.731,-1.905 4.731,-1.905C4.731,-1.905 2.167,0.481 0.114,0.482C-1.939,0.483 -2.707,-0.586 -2.707,-1.905C-2.707,-3.223 -1.94,-4.291 0.114,-4.292" style="fill:rgb(12,142,118);fill-rule:nonzero;"/>
                        </g>
                        <g transform="matrix(-0.893546,0.448973,0.448973,0.893546,605.022,397.715)">
                            <path d="M2.03,-4.746C-0.024,-4.746 -2.586,-2.36 -2.586,-2.36C-2.586,-2.36 -0.025,0.027 2.03,0.027C4.083,0.027 4.85,-1.041 4.85,-2.36C4.851,-3.677 4.083,-4.746 2.03,-4.746" style="fill:rgb(12,142,118);fill-rule:nonzero;"/>
                        </g>
                        <g transform="matrix(-0.920333,0.391136,0.391136,0.920333,613.855,400.722)">
                            <path d="M-0.157,-4.36C1.896,-4.36 4.459,-1.973 4.459,-1.973C4.459,-1.973 1.896,0.413 -0.157,0.413C-2.211,0.414 -2.979,-0.655 -2.978,-1.973C-2.979,-3.291 -2.212,-4.36 -0.157,-4.36" style="fill:rgb(12,142,118);fill-rule:nonzero;"/>
                        </g>
                        <g transform="matrix(-0.920333,0.391136,0.391136,0.920333,607.509,404.024)">
                            <path d="M2.026,-4.805C-0.028,-4.805 -2.591,-2.418 -2.591,-2.418C-2.591,-2.418 -0.028,-0.031 2.026,-0.031C4.079,-0.031 4.846,-1.1 4.847,-2.418C4.847,-3.736 4.08,-4.805 2.026,-4.805" style="fill:rgb(12,142,118);fill-rule:nonzero;"/>
                        </g>
                        <g transform="matrix(-0.954069,0.299587,0.299587,0.954069,615.804,408.467)">
                            <path d="M-0.574,-4.466C1.48,-4.467 4.043,-2.081 4.043,-2.081C4.043,-2.081 1.481,0.307 -0.574,0.307C-2.627,0.306 -3.395,-0.762 -3.394,-2.079C-3.395,-3.398 -2.627,-4.466 -0.574,-4.466" style="fill:rgb(12,142,118);fill-rule:nonzero;"/>
                        </g>
                        <g transform="matrix(-0.954088,0.299527,0.299527,0.954088,609.527,410.969)">
                            <path d="M2.004,-4.862C-0.051,-4.862 -2.613,-2.475 -2.613,-2.475C-2.613,-2.475 -0.051,-0.089 2.004,-0.088C4.058,-0.088 4.825,-1.157 4.825,-2.476C4.824,-3.794 4.057,-4.862 2.004,-4.862" style="fill:rgb(12,142,118);fill-rule:nonzero;"/>
                        </g>
                        <g transform="matrix(-0.981583,0.191038,0.191038,0.981583,616.798,417.172)">
                            <path d="M-1.041,-4.586C1.014,-4.585 3.576,-2.199 3.576,-2.199C3.576,-2.199 1.013,0.188 -1.041,0.188C-3.095,0.188 -3.862,-0.88 -3.862,-2.199C-3.863,-3.517 -3.095,-4.585 -1.041,-4.586" style="fill:rgb(12,142,118);fill-rule:nonzero;"/>
                        </g>
                        <g transform="matrix(-0.981583,0.191038,0.191038,0.981583,610.669,418.773)">
                            <path d="M1.952,-4.874C-0.102,-4.874 -2.664,-2.487 -2.664,-2.487C-2.664,-2.487 -0.102,-0.1 1.952,-0.1C4.006,-0.101 4.774,-1.169 4.773,-2.487C4.773,-3.805 4.007,-4.874 1.952,-4.874" style="fill:rgb(12,142,118);fill-rule:nonzero;"/>
                        </g>
                        <g transform="matrix(-0.991525,0.129912,0.129912,0.991525,617.644,424.987)">
                            <path d="M-1.293,-4.647C0.76,-4.646 3.324,-2.26 3.324,-2.26C3.324,-2.26 0.761,0.126 -1.293,0.126C-3.346,0.127 -4.114,-0.942 -4.114,-2.26C-4.115,-3.579 -3.347,-4.648 -1.293,-4.647" style="fill:rgb(12,142,118);fill-rule:nonzero;"/>
                        </g>
                        <g transform="matrix(-0.991529,0.129885,0.129885,0.991529,611.629,426.1)">
                            <path d="M1.913,-4.858C-0.14,-4.858 -2.704,-2.47 -2.704,-2.47C-2.704,-2.47 -0.14,-0.084 1.913,-0.084C3.968,-0.084 4.734,-1.153 4.734,-2.471C4.734,-3.788 3.967,-4.857 1.913,-4.858" style="fill:rgb(12,142,118);fill-rule:nonzero;"/>
                        </g>
                        <g transform="matrix(1,0,0,1,614.956,386.204)">
                            <path d="M0,50.063C0.168,50.013 0.29,49.858 0.289,49.673C0.288,49.335 0.026,15.718 -13.453,0.17C-13.6,0 -13.854,-0.018 -14.024,0.129C-14.193,0.276 -14.212,0.532 -14.065,0.701C-0.781,16.024 -0.521,49.341 -0.521,49.676C-0.521,49.9 -0.338,50.081 -0.114,50.08C-0.075,50.08 -0.036,50.074 0,50.063" style="fill:rgb(1,198,152);fill-rule:nonzero;"/>
                        </g>
                        <g transform="matrix(1,0,0,1,555.124,423.665)">
                            <path d="M0,15.093C0,15.093 6.987,0 26.802,0.265C45.458,0.513 53.482,15.093 53.482,15.093L0,15.093Z" style="fill:rgb(83,96,96);fill-rule:nonzero;"/>
                        </g>
                        <g transform="matrix(1,0,0,1,570.727,424.069)">
                            <path d="M0,14.689C-0.462,12.903 -0.241,10.963 0.38,9.189C0.999,7.402 2.063,5.764 3.394,4.414C4.74,3.073 6.354,2.056 8.044,1.302C8.885,0.918 9.787,0.686 10.652,0.407C11.558,0.234 12.457,0.075 13.363,0C12.583,0.501 11.79,0.903 11.014,1.32C10.269,1.799 9.498,2.207 8.778,2.679C7.339,3.628 5.999,4.658 4.808,5.828C2.463,8.193 0.748,11.134 0,14.689" style="fill:rgb(67,89,87);fill-rule:nonzero;"/>
                        </g>
                        <g transform="matrix(1,0,0,1,587.74,426.562)">
                            <path d="M0,12.196C-0.521,10.989 -0.641,9.662 -0.56,8.353C-0.46,7.043 -0.095,5.732 0.526,4.539C0.819,3.931 1.229,3.388 1.634,2.852C2.104,2.367 2.545,1.854 3.11,1.485C4.165,0.663 5.442,0.186 6.717,0C5.799,0.946 4.894,1.704 4.183,2.634C3.788,3.055 3.493,3.553 3.147,3.996C2.864,4.489 2.539,4.946 2.3,5.462C1.238,7.468 0.615,9.695 0,12.196" style="fill:rgb(67,89,87);fill-rule:nonzero;"/>
                        </g>
                        <g transform="matrix(1,0,0,1,612.777,393.275)">
                            <path d="M0,46.626L40.609,48.038C45.854,48.221 50.969,45.976 54.133,41.789C56.408,38.776 57.39,35.072 53.547,31.501C47.582,25.957 36.282,34.2 36.282,34.2C36.282,34.2 52.072,22.768 46.582,13.606C41.091,4.445 27.411,12.657 26.722,27.748C26.722,27.748 25.668,2.66 10.802,0.533C-4.064,-1.595 -1.516,17.103 6.135,27.031C6.135,27.031 -8.795,14.168 -12.798,22.578C-16.801,30.988 -2.364,39.331 -2.364,39.331C-2.364,39.331 -4.919,38.659 -7.912,38.707C-12.833,38.785 -12.823,46.181 -7.905,46.352L0,46.626Z" style="fill:rgb(1,198,152);fill-rule:nonzero;"/>
                        </g>
                        <g transform="matrix(1,0,0,1,635.748,420.625)">
                            <path d="M0,19.731C-0.116,19.719 -0.234,19.689 -0.348,19.639C-0.867,19.411 -1.147,18.841 -1.01,18.291C-0.331,15.564 0.187,12.583 0.688,9.702C1.195,6.783 1.72,3.764 2.418,0.961C2.573,0.336 3.203,-0.044 3.829,0.112C4.454,0.267 4.835,0.899 4.68,1.523C4.002,4.245 3.485,7.221 2.985,10.099C2.747,11.462 2.506,12.845 2.247,14.219C4.473,12.032 7.083,10.162 9.635,8.333C10.255,7.887 10.87,7.448 11.471,7.008C11.987,6.627 12.717,6.74 13.099,7.26C13.479,7.779 13.366,8.508 12.847,8.888C12.24,9.333 11.619,9.778 10.992,10.226C7.284,12.883 3.45,15.631 1.095,19.212C0.85,19.585 0.424,19.775 0,19.731" style="fill:rgb(12,142,118);fill-rule:nonzero;"/>
                        </g>
                        <g transform="matrix(1,0,0,1,635.748,422.029)">
                            <path d="M0,18.327C-0.154,18.311 -0.305,18.265 -0.446,18.186C-6.201,14.98 -15.193,11.893 -22.316,12.216C-22.979,12.242 -23.506,11.745 -23.534,11.105C-23.563,10.463 -23.066,9.917 -22.424,9.888C-15.966,9.591 -8.669,11.767 -3.14,14.244C-5.524,10.914 -8.142,8.334 -11.059,5.456C-12.145,4.386 -13.273,3.272 -14.451,2.062C-14.899,1.601 -14.891,0.864 -14.43,0.415C-13.968,-0.036 -13.229,-0.023 -12.781,0.436C-11.614,1.634 -10.497,2.737 -9.423,3.796C-5.438,7.727 -1.997,11.12 1.133,16.589C1.393,17.044 1.317,17.615 0.95,17.987C0.695,18.245 0.344,18.363 0,18.327" style="fill:rgb(12,142,118);fill-rule:nonzero;"/>
                        </g>
                    </g>
                </g>
                <g transform="matrix(1,0,0,1,663.126,383.618)">
                    <path d="M0,-278.674C-149.998,-305.923 -271.112,-244.242 -283.212,-164.446C-294.772,-88.257 -358.683,-59.2 -364.463,-56.715C-364.504,-56.698 -364.538,-56.682 -364.571,-56.674C-413.569,-38.607 -443.328,5.239 -444.476,6.957C-444.484,6.972 -444.5,6.989 -444.509,7.006C-466.803,37.268 -488.024,55.271 -488.024,55.271L-573.585,55.236L-573.585,-333.942L0,-333.945L0,-278.674Z" style="fill:white;fill-rule:nonzero;"/>
                </g>
                <g opacity="0.3">
                    <g transform="matrix(1,0,0,1,663.072,403.111)">
                        <path d="M0,-298.17C-150,-325.419 -271.108,-263.737 -283.214,-183.94C-294.773,-107.75 -358.685,-78.693 -364.464,-76.208C-364.506,-76.191 -364.539,-76.175 -364.572,-76.167C-413.57,-58.1 -443.329,-14.254 -444.477,-12.536C-444.485,-12.521 -444.501,-12.504 -444.51,-12.487C-466.804,17.775 -488.025,35.778 -488.025,35.778L-498.743,35.762C-498.099,35.208 -477.192,17.305 -455.244,-12.487C-455.236,-12.504 -455.219,-12.521 -455.211,-12.536C-454.063,-14.254 -424.305,-58.1 -375.306,-76.167C-375.273,-76.175 -375.24,-76.191 -375.199,-76.208C-369.419,-78.693 -311.123,-108.816 -293.948,-183.94C-272.487,-277.799 -148.629,-333.948 0,-298.17" style="fill:rgb(39,201,112);fill-rule:nonzero;"/>
                    </g>
                </g>
                <g transform="matrix(1,0,0,1,430.704,225.164)">
                    <path d="M0,5.299C-2.503,5.299 -4.902,5.695 -7.155,6.404C-8.281,3.86 -10.806,2.108 -13.747,2.108C-14.79,2.108 -15.771,2.337 -16.667,2.713C-17.272,-3.045 -22.133,-7.572 -28.077,-7.572C-32.729,-7.572 -36.734,-4.797 -38.528,-0.813C-38.532,-0.803 -38.535,-0.792 -38.54,-0.783C-39.531,-1.293 -40.639,-1.608 -41.83,-1.608C-43.898,-1.608 -45.752,-0.73 -47.07,0.661C-47.074,0.657 -47.077,0.652 -47.081,0.647C-49.229,-1.814 -52.379,-3.379 -55.904,-3.379C-61.766,-3.379 -66.626,0.919 -67.502,6.55C-68.67,5.758 -70.068,5.299 -71.549,5.299C-74.761,5.299 -77.473,7.364 -78.412,10.264C-80.185,10.514 -81.708,11.473 -82.688,12.871L17.334,12.871C13.037,8.219 6.862,5.299 0,5.299" style="fill:white;fill-rule:nonzero;"/>
                </g>
                <g transform="matrix(1,0,0,1,505.463,119.335)">
                    <path d="M0,5.299C-2.503,5.299 -4.902,5.695 -7.155,6.404C-8.281,3.86 -10.806,2.107 -13.746,2.107C-14.789,2.107 -15.77,2.337 -16.667,2.712C-17.271,-3.045 -22.132,-7.572 -28.077,-7.572C-32.729,-7.572 -36.734,-4.797 -38.527,-0.813C-38.532,-0.803 -38.535,-0.793 -38.54,-0.783C-39.531,-1.293 -40.639,-1.608 -41.83,-1.608C-43.898,-1.608 -45.752,-0.73 -47.07,0.661C-47.074,0.657 -47.076,0.652 -47.08,0.647C-49.229,-1.814 -52.379,-3.379 -55.904,-3.379C-61.766,-3.379 -66.626,0.918 -67.502,6.55C-68.67,5.757 -70.067,5.299 -71.549,5.299C-74.761,5.299 -77.473,7.364 -78.411,10.263C-80.185,10.514 -81.707,11.473 -82.688,12.871L17.334,12.871C13.037,8.219 6.863,5.299 0,5.299" style="fill:white;fill-rule:nonzero;"/>
                </g>
            </g>
        </g>
    </g>
</svg>
